<svg xmlns="http://www.w3.org/2000/svg" xmlns:xlink="http://www.w3.org/1999/xlink" width="95" height="95" viewBox="0 0 95 95">
  <defs>
    <linearGradient id="linear-gradient" x2="1" y2="1" gradientUnits="objectBoundingBox">
      <stop offset="0" stop-color="#421dbe"/>
      <stop offset="1" stop-color="#c6ebdb"/>
    </linearGradient>
  </defs>
  <g id="Group_7" data-name="Group 7" transform="translate(-235 -129)">
    <rect id="Rectangle_4" data-name="Rectangle 4" width="95" height="95" transform="translate(235 129)" fill="url(#linear-gradient)"/>
    <g id="Union_2" data-name="Union 2" transform="translate(251.18 171.347) rotate(-45)" fill="#fff" stroke-linecap="round">
      <path d="M 30.11039924621582 42.5 L 2.978100061416626 42.5 C 2.714469909667969 42.5 2.5 42.28553009033203 2.5 42.02190017700195 L 2.5 14.88959980010986 C 2.5 11.58022022247314 3.788739919662476 8.46891975402832 6.128829956054688 6.128829956054688 C 8.46891975402832 3.788739919662476 11.58022022247314 2.5 14.88959980010986 2.5 C 18.1989803314209 2.5 21.31027984619141 3.788739919662476 23.65036964416504 6.128829956054688 C 25.99045944213867 8.46891975402832 27.27919960021973 11.58022022247314 27.27919960021973 14.88959980010986 L 27.27919960021973 15.22080039978027 L 27.27919960021973 17.72080039978027 L 29.77919960021973 17.72080039978027 L 30.11039924621582 17.72080039978027 C 33.41978073120117 17.72080039978027 36.53107833862305 19.00954055786133 38.87117004394531 21.34963035583496 C 41.21126174926758 23.68972015380859 42.5 26.8010196685791 42.5 30.11039924621582 C 42.5 33.41978073120117 41.21126174926758 36.53107833862305 38.87117004394531 38.87117004394531 C 36.53107833862305 41.21126174926758 33.41978073120117 42.5 30.11039924621582 42.5 Z" stroke="none"/>
      <path d="M 30.11039924621582 40 C 35.56354522705078 40 40 35.56354522705078 40 30.11039924621582 C 40 24.65725517272949 35.56354522705078 20.22080039978027 30.11039924621582 20.22080039978027 L 29.77919960021973 20.22080039978027 L 24.77919960021973 20.22080039978027 L 24.77919960021973 15.22080039978027 L 24.77919960021973 14.88959980010986 C 24.77919960021973 9.436455726623535 20.34274482727051 5 14.88959980010986 5 C 9.436455726623535 5 5 9.436455726623535 5 14.88959980010986 L 5 40 L 30.11039924621582 40 M 30.11039924621582 45 L 2.978100061416626 45 C 1.332900047302246 45 0 43.66709899902344 0 42.02190017700195 L 0 14.88959980010986 C 0 6.666299819946289 6.666299819946289 0 14.88959980010986 0 C 23.11289978027344 0 29.77919960021973 6.666299819946289 29.77919960021973 14.88959980010986 L 29.77919960021973 15.22080039978027 L 30.11039924621582 15.22080039978027 C 38.33369827270508 15.22080039978027 45 21.88710021972656 45 30.11039924621582 C 45 38.33369827270508 38.33369827270508 45 30.11039924621582 45 Z" stroke="none" fill="#fff"/>
    </g>
  </g>
</svg>
