<svg xmlns="http://www.w3.org/2000/svg" width="192.333" height="192.333" viewBox="0 0 192.333 192.333">
  <g id="Union_1" data-name="Union 1" transform="translate(0 96.166) rotate(-45)" fill="none" stroke-linecap="round">
    <path d="M9,136a9,9,0,0,1-9-9V45a45,45,0,0,1,90,0v1h1a45,45,0,1,1,0,90Z" stroke="none"/>
    <path d="M 90.99990844726562 128.9999084472656 C 111.9531707763672 128.9999084472656 128.9999084472656 111.9531707763672 128.9999084472656 90.99990844726562 C 128.9999084472656 70.04664611816406 111.9531707763672 52.99990844726562 90 52.99990844726562 L 83 52 L 83 45 C 83 24.04673957824707 65.95326232910156 7.000001907348633 45 7.000001907348633 C 24.04673957824707 7.000001907348633 7.000001907348633 24.04673957824707 7.000001907348633 45 L 7.000001907348633 126.9999084472656 C 7.000001907348633 128.1027221679688 7.897192478179932 128.9999084472656 9.000001907348633 128.9999084472656 L 90.99990844726562 128.9999084472656 M 90.99990844726562 135.9999084472656 L 9.000001907348633 135.9999084472656 C 4.029311180114746 135.9999084472656 1.842680376284989e-06 131.9705963134766 1.842680376284989e-06 126.9999084472656 L 1.842680376284989e-06 45 C 1.842680376284989e-06 20.14740753173828 20.14740753173828 1.842680376284989e-06 45 1.842680376284989e-06 C 69.85260009765625 1.842680376284989e-06 90 20.14740753173828 90 45 L 90 45.99990844726562 L 90.99990844726562 45.99990844726562 C 115.8525009155273 45.99990844726562 135.9999084472656 66.14730834960938 135.9999084472656 90.99990844726562 C 135.9999084472656 115.8525009155273 115.8525009155273 135.9999084472656 90.99990844726562 135.9999084472656 Z" stroke="none" fill="#fff"/>
  </g>
</svg>
