<svg xmlns="http://www.w3.org/2000/svg" width="110" height="122.504" viewBox="0 0 110 122.504">
  <g id="Path_1" data-name="Path 1" transform="translate(0 30.085)" fill="none">
    <path d="M0-6.473,54.713-30.085,110-6.473V92.419H69V46.875H39.554V92.419H0Z" stroke="none"/>
    <path d="M 54.72753524780273 -22.46688842773438 L 7 -1.869430541992188 L 7 85.41946411132812 L 32.55377197265625 85.41946411132812 L 32.55377197265625 46.87524032592773 L 32.55377197265625 39.87524032592773 L 39.55377197265625 39.87524032592773 L 68.99856567382812 39.87524032592773 L 75.99856567382812 39.87524032592773 L 75.99856567382812 46.87524032592773 L 75.99856567382812 85.41946411132812 L 103 85.41946411132812 L 103 -1.850448608398438 L 54.72753524780273 -22.46688842773438 M 54.713134765625 -30.084716796875 L 110 -6.4725341796875 L 110 92.41946411132812 L 68.99856567382812 92.41946411132812 L 68.99856567382812 46.87524032592773 L 39.55377197265625 46.87524032592773 L 39.55377197265625 92.41946411132812 L 0 92.41946411132812 L 0 -6.4725341796875 L 54.713134765625 -30.084716796875 Z" stroke="none" fill="#fff"/>
  </g>
</svg>
